<svg width="18" height="20" viewBox="0 0 18 20" fill="none" xmlns="http://www.w3.org/2000/svg">
<g clip-path="url(#clip0_806_249)">
<mask id="mask0_806_249" style="mask-type:luminance" maskUnits="userSpaceOnUse" x="0" y="0" width="18" height="20">
<path d="M0 0H18V20H0V0Z" fill="white"/>
</mask>
<g mask="url(#mask0_806_249)">
<path d="M5.432 0.691043C5.54143 0.481105 5.70673 0.305479 5.90966 0.183544C6.11259 0.0616098 6.34526 -0.00189315 6.582 4.29858e-05H11.419C11.905 4.29858e-05 12.351 0.266043 12.568 0.691043L12.858 1.25004H16.714C17.425 1.25004 18 1.80904 18 2.50004C18 3.19104 17.425 3.75004 16.714 3.75004H1.286C0.575 3.75004 0 3.19104 0 2.50004C0 1.80904 0.575 1.25004 1.286 1.25004H5.143L5.432 0.691043ZM1.286 5.00004H16.714V17.5C16.714 18.879 15.561 20 14.143 20H3.857C2.439 20 1.286 18.879 1.286 17.5V5.00004ZM5.143 7.50004C4.975 7.49817 4.81309 7.56284 4.69261 7.67995C4.57214 7.79705 4.5029 7.95706 4.5 8.12504V16.875C4.5 17.219 4.79 17.5 5.143 17.5C5.311 17.5019 5.47291 17.4372 5.59339 17.3201C5.71386 17.203 5.7831 17.043 5.786 16.875V8.12504C5.7831 7.95706 5.71386 7.79705 5.59339 7.67995C5.47291 7.56284 5.311 7.49817 5.143 7.50004ZM9 7.50004C8.832 7.49817 8.67009 7.56284 8.54961 7.67995C8.42914 7.79705 8.3599 7.95706 8.357 8.12504V16.875C8.357 17.219 8.647 17.5 9 17.5C9.168 17.5019 9.32991 17.4372 9.45039 17.3201C9.57086 17.203 9.6401 17.043 9.643 16.875V8.12504C9.6401 7.95706 9.57086 7.79705 9.45039 7.67995C9.32991 7.56284 9.168 7.49817 9 7.50004ZM12.857 7.50004C12.689 7.49817 12.5271 7.56284 12.4066 7.67995C12.2861 7.79705 12.2169 7.95706 12.214 8.12504V16.875C12.214 17.219 12.504 17.5 12.857 17.5C13.025 17.5019 13.1869 17.4372 13.3074 17.3201C13.4279 17.203 13.4971 17.043 13.5 16.875V8.12504C13.4971 7.95706 13.4279 7.79705 13.3074 7.67995C13.1869 7.56284 13.025 7.49817 12.857 7.50004Z" fill="white"/>
</g>
</g>
<defs>
<clipPath id="clip0_806_249">
<rect width="18" height="20" fill="white"/>
</clipPath>
</defs>
</svg>
