<svg width="80" height="80" viewBox="0 0 80 80" fill="none" xmlns="http://www.w3.org/2000/svg">
<g clip-path="url(#clip0_301_241)">
<path d="M40 60.0006H16.6667C14.8986 60.0006 13.2029 59.2983 11.9526 58.048C10.7024 56.7978 10 55.1021 10 53.334V20.0007C10 18.2325 10.7024 16.5368 11.9526 15.2866C13.2029 14.0364 14.8986 13.334 16.6667 13.334H63.3333C65.1014 13.334 66.7971 14.0364 68.0474 15.2866C69.2976 16.5368 70 18.2325 70 20.0007V45.0007" stroke="#00B341" stroke-width="5" stroke-linecap="round" stroke-linejoin="round"/>
<path d="M10 20L40 40L70 20" stroke="#00B341" stroke-width="5" stroke-linecap="round" stroke-linejoin="round"/>
<path d="M50 60H70" stroke="#00B341" stroke-width="5" stroke-linecap="round" stroke-linejoin="round"/>
<path d="M60 50L70 60L60 70" stroke="#00B341" stroke-width="5" stroke-linecap="round" stroke-linejoin="round"/>
</g>
<defs>
<clipPath id="clip0_301_241">
<rect width="80" height="80" fill="white"/>
</clipPath>
</defs>
</svg>
