<svg width="85" height="85" viewBox="0 0 85 85" fill="none" xmlns="http://www.w3.org/2000/svg">
<circle cx="42.5" cy="42.5" r="42.5" fill="#1782FF"/>
<g clip-path="url(#clip0_249_275)">
<path d="M19 19V67H67" stroke="white" stroke-width="4.25" stroke-linecap="round" stroke-linejoin="round"/>
<path d="M35 40.3327C37.9455 40.3327 40.3334 37.9449 40.3334 34.9993C40.3334 32.0538 37.9455 29.666 35 29.666C32.0545 29.666 29.6667 32.0538 29.6667 34.9993C29.6667 37.9449 32.0545 40.3327 35 40.3327Z" stroke="white" stroke-width="4.25" stroke-linecap="round" stroke-linejoin="round"/>
<path d="M61.6666 35.0007C64.6122 35.0007 67 32.6128 67 29.6673C67 26.7218 64.6122 24.334 61.6666 24.334C58.7211 24.334 56.3333 26.7218 56.3333 29.6673C56.3333 32.6128 58.7211 35.0007 61.6666 35.0007Z" stroke="white" stroke-width="4.25" stroke-linecap="round" stroke-linejoin="round"/>
<path d="M48.3333 56.3327C51.2789 56.3327 53.6667 53.9449 53.6667 50.9993C53.6667 48.0538 51.2789 45.666 48.3333 45.666C45.3878 45.666 43 48.0538 43 50.9993C43 53.9449 45.3878 56.3327 48.3333 56.3327Z" stroke="white" stroke-width="4.25" stroke-linecap="round" stroke-linejoin="round"/>
<path d="M38.0933 39.3203L44.3333 47.0003" stroke="white" stroke-width="4.25" stroke-linecap="round" stroke-linejoin="round"/>
<path d="M51.2347 46.5418L58.8 34.3125" stroke="white" stroke-width="4.25" stroke-linecap="round" stroke-linejoin="round"/>
</g>
<defs>
<clipPath id="clip0_249_275">
<rect width="64" height="64" fill="white" transform="translate(11 11)"/>
</clipPath>
</defs>
</svg>
