<svg width="20" height="18" viewBox="0 0 20 18" fill="none" xmlns="http://www.w3.org/2000/svg">
<g clip-path="url(#clip0_803_241)">
<path d="M5.55556 9C5.55556 6.51445 7.54514 4.5 10 4.5C12.4549 4.5 14.4444 6.51445 14.4444 9C14.4444 11.4855 12.4549 13.5 10 13.5C7.54514 13.5 5.55556 11.4855 5.55556 9ZM10 11.8125C11.5347 11.8125 12.7778 10.5539 12.7778 9C12.7778 7.44609 11.5347 6.1875 10 6.1875C9.9757 6.1875 9.95487 6.1875 9.89931 6.1875C9.9757 6.3668 10 6.55664 10 6.75C10 7.99102 9.00348 9 7.77778 9C7.58681 9 7.39931 8.97539 7.22223 8.89805C7.22223 8.9543 7.22223 8.97539 7.22223 8.96836C7.22223 10.5539 8.46528 11.8125 10 11.8125ZM3.3132 3.95859C4.94792 2.42016 7.19445 1.125 10 1.125C12.8056 1.125 15.0521 2.42016 16.6875 3.95859C18.3125 5.48438 19.3993 7.28086 19.9132 8.56758C20.0278 8.84531 20.0278 9.15469 19.9132 9.43242C19.3993 10.6875 18.3125 12.484 16.6875 14.0414C15.0521 15.5812 12.8056 16.875 10 16.875C7.19445 16.875 4.94792 15.5812 3.3132 14.0414C1.6882 12.484 0.602088 10.6875 0.0854557 9.43242C-0.0284852 9.15469 -0.0284852 8.84531 0.0854557 8.56758C0.602088 7.28086 1.6882 5.48438 3.3132 3.95859ZM10 2.8125C7.73612 2.8125 5.875 3.85312 4.44792 5.19258C3.11112 6.45117 2.1882 7.91367 1.71667 9C2.1882 10.0547 3.11112 11.5488 4.44792 12.8074C5.875 14.1469 7.73612 15.1875 10 15.1875C12.2639 15.1875 14.125 14.1469 15.5521 12.8074C16.8889 11.5488 17.7813 10.0547 18.2847 9C17.7813 7.91367 16.8889 6.45117 15.5521 5.19258C14.125 3.85312 12.2639 2.8125 10 2.8125Z" fill="white"/>
</g>
<defs>
<clipPath id="clip0_803_241">
<rect width="20" height="18" fill="white"/>
</clipPath>
</defs>
</svg>
