<svg width="10" height="15" viewBox="0 0 10 15" fill="none" xmlns="http://www.w3.org/2000/svg">
<g clip-path="url(#clip0_158_43)">
<path d="M5.61719 14.625C6.95312 12.7441 10 8.18555 10 5.625C10 2.51953 7.76042 0 5 0C2.23958 0 0 2.51953 0 5.625C0 8.18555 3.04688 12.7441 4.38281 14.625C4.70312 15.0732 5.29687 15.0732 5.61719 14.625ZM5 3.75C5.44203 3.75 5.86595 3.94754 6.17851 4.29917C6.49107 4.65081 6.66667 5.12772 6.66667 5.625C6.66667 6.12228 6.49107 6.59919 6.17851 6.95083C5.86595 7.30246 5.44203 7.5 5 7.5C4.55797 7.5 4.13405 7.30246 3.82149 6.95083C3.50893 6.59919 3.33333 6.12228 3.33333 5.625C3.33333 5.12772 3.50893 4.65081 3.82149 4.29917C4.13405 3.94754 4.55797 3.75 5 3.75Z" fill="#0538A5"/>
</g>
<defs>
<clipPath id="clip0_158_43">
<rect width="10" height="15" fill="white"/>
</clipPath>
</defs>
</svg>
