<svg width="85" height="85" viewBox="0 0 85 85" fill="none" xmlns="http://www.w3.org/2000/svg">
<circle cx="42.5" cy="42.5" r="42.5" fill="#1782FF"/>
<path d="M60.6667 36H34C31.0545 36 28.6667 38.3878 28.6667 41.3333V57.3333C28.6667 60.2789 31.0545 62.6667 34 62.6667H60.6667C63.6122 62.6667 66 60.2789 66 57.3333V41.3333C66 38.3878 63.6122 36 60.6667 36Z" stroke="white" stroke-width="4.25" stroke-linecap="round" stroke-linejoin="round"/>
<path d="M47.3333 54.6667C50.2789 54.6667 52.6667 52.2789 52.6667 49.3333C52.6667 46.3878 50.2789 44 47.3333 44C44.3878 44 42 46.3878 42 49.3333C42 52.2789 44.3878 54.6667 47.3333 54.6667Z" stroke="white" stroke-width="4.25" stroke-linecap="round" stroke-linejoin="round"/>
<path d="M55.3333 36.0007V30.6673C55.3333 29.2528 54.7714 27.8963 53.7712 26.8961C52.771 25.8959 51.4145 25.334 50 25.334H23.3333C21.9188 25.334 20.5623 25.8959 19.5621 26.8961C18.5619 27.8963 18 29.2528 18 30.6673V46.6673C18 48.0818 18.5619 49.4384 19.5621 50.4386C20.5623 51.4387 21.9188 52.0006 23.3333 52.0006H28.6667" stroke="white" stroke-width="4.25" stroke-linecap="round" stroke-linejoin="round"/>
</svg>
