<svg width="40" height="40" fill="none" xmlns="http://www.w3.org/2000/svg"><path d="M21.667 1.875v.82c.444.094.875.211 1.264.328.889.266 1.416 1.297 1.18 2.297-.236 1-1.152 1.594-2.041 1.328-.757-.226-1.466-.382-2.098-.39-.507-.008-1.02.133-1.347.344a.836.836 0 00-.243.234.408.408 0 00-.049.219v.047c.014.015.063.093.23.203.402.273 1 .484 1.902.789l.063.023c.77.258 1.799.61 2.632 1.195.951.672 1.813 1.79 1.833 3.508.021 1.758-.791 3.04-1.854 3.79-.465.32-.965.546-1.479.687v.828c0 1.04-.743 1.875-1.667 1.875-.923 0-1.666-.836-1.666-1.875v-.89c-.66-.18-1.264-.415-1.778-.61-.146-.055-.285-.11-.417-.156-.875-.328-1.347-1.39-1.055-2.375.291-.985 1.236-1.516 2.11-1.188.181.07.348.133.508.196.944.359 1.625.617 2.354.648.555.023 1.049-.125 1.333-.32a.684.684 0 00.222-.227c.028-.047.063-.14.056-.32v-.016c0-.078 0-.164-.278-.36-.396-.28-.993-.5-1.882-.804l-.132-.047c-.75-.25-1.736-.586-2.527-1.125-.938-.633-1.84-1.719-1.848-3.445-.007-1.79.896-3.016 1.924-3.703.444-.297.923-.5 1.403-.64v-.868C18.32.835 19.063 0 19.986 0c.924 0 1.667.836 1.667 1.875h.014zm17.792 24.398c.91 1.391.646 3.344-.59 4.368l-8.792 7.289C28.452 39.273 26.493 40 24.472 40H2.224C.992 40 0 38.883 0 37.5v-5C0 31.117.993 30 2.222 30h2.556l3.118-2.813C9.472 25.767 11.43 25 13.45 25h10.994c1.229 0 2.222 1.117 2.222 2.5s-.993 2.5-2.222 2.5H18.89c-.612 0-1.112.563-1.112 1.25 0 .688.5 1.25 1.111 1.25h8.375l8.313-6.89c1.236-1.024 2.972-.727 3.882.663zM13.445 30h-.063.063z" fill="#fff"/></svg> 16.8405 10.5312C15.903 9.89844 15.0002 8.8125 14.9932 7.08594C14.9863 5.29687 15.8891 4.07031 16.9169 3.38281C17.3613 3.08594 17.8405 2.88281 18.3196 2.74219V1.875C18.3196 0.835938 19.0627 0 19.9863 0C20.91 0 21.653 0.835938 21.653 1.875H21.6669ZM39.4588 26.2734C40.3685 27.6641 40.1046 29.6172 38.8685 30.6406L30.0767 37.9297C28.4517 39.2734 26.4933 40 24.4725 40H13.3335H2.22225C0.993066 40 0 38.8828 0 37.5V32.5C0 31.1172 0.993066 30 2.22225 30H4.77783L7.89592 27.1875C9.47233 25.7656 11.4307 25 13.4515 25H18.8891H20.0002H24.4447C25.6739 25 26.667 26.1172 26.667 27.5C26.667 28.8828 25.6739 30 24.4447 30H20.0002H18.8891C18.278 30 17.778 30.5625 17.778 31.25C17.778 31.9375 18.278 32.5 18.8891 32.5H27.2642L35.5768 25.6094C36.8129 24.5859 38.549 24.8828 39.4588 26.2734ZM13.4446 30H13.3821C13.4029 30 13.4238 30 13.4446 30Z" fill="white"/>
</svg>
