<svg width="80" height="80" viewBox="0 0 80 80" fill="none" xmlns="http://www.w3.org/2000/svg">
<g clip-path="url(#clip0_304_241)">
<path d="M30.0001 36.6667C37.3639 36.6667 43.3334 30.6971 43.3334 23.3333C43.3334 15.9695 37.3639 10 30.0001 10C22.6363 10 16.6667 15.9695 16.6667 23.3333C16.6667 30.6971 22.6363 36.6667 30.0001 36.6667Z" stroke="#00B341" stroke-width="5" stroke-linecap="round" stroke-linejoin="round"/>
<path d="M10 70V63.3333C10 59.7971 11.4048 56.4057 13.9052 53.9052C16.4057 51.4048 19.7971 50 23.3333 50H36.6667C40.2029 50 43.5943 51.4048 46.0948 53.9052C48.5952 56.4057 50 59.7971 50 63.3333V70" stroke="#00B341" stroke-width="5" stroke-linecap="round" stroke-linejoin="round"/>
<path d="M53.3333 36.6667L59.9999 43.3333L73.3333 30" stroke="#00B341" stroke-width="5" stroke-linecap="round" stroke-linejoin="round"/>
</g>
<defs>
<clipPath id="clip0_304_241">
<rect width="80" height="80" fill="white"/>
</clipPath>
</defs>
</svg>
