<svg width="24" height="20" fill="none" xmlns="http://www.w3.org/2000/svg"><g clip-path="url(#a)"><path d="M21.615 16.49c.687-.384.834-1.116.328-1.637-.506-.522-1.471-.633-2.159-.25l-4.622 2.585h-4.658c-.34 0-.618-.211-.618-.47 0-.257.278-.468.618-.468h3.09c.683 0 1.235-.419 1.235-.938 0-.518-.552-.937-1.235-.937H7.48c-1.123 0-2.212.29-3.09.82L2.658 16.25H1.236c-.684 0-1.236.419-1.236.938v1.875C0 19.58.552 20 1.236 20h12.377c1.12 0 2.213-.273 3.117-.776l4.889-2.734h-.004Z" fill="#F3F3F3"/></g><g clip-path="url(#b)"><path d="M2.385 3.51c-.687.384-.834 1.116-.328 1.637.506.522 1.471.633 2.159.25l4.622-2.585h4.658c.34 0 .618.211.618.47 0 .257-.278.468-.618.468h-3.09c-.683 0-1.235.419-1.235.938 0 .518.552.937 1.235.937h6.114c1.123 0 2.213-.29 3.09-.82l1.733-1.055h1.421c.684 0 1.236-.419 1.236-.938V.938C24 .417 23.448 0 22.764 0H10.387c-1.12 0-2.213.272-3.116.776L2.38 3.51h.004Z" fill="#F3F3F3"/></g><g clip-path="url(#c)"><path d="M7.61 6.25c-.969 0-1.756.56-1.756 1.25v5c0 .69.787 1.25 1.756 1.25h12.292c.969 0 1.756-.56 1.756-1.25v-5c0-.69-.787-1.25-1.756-1.25H7.61Zm1.756 6.25H7.61v-1.25c.968 0 1.756.56 1.756 1.25ZM7.61 8.75V7.5h1.756c0 .69-.788 1.25-1.756 1.25Zm10.536 3.75c0-.69.788-1.25 1.756-1.25v1.25h-1.756Zm1.756-3.75c-.968 0-1.756-.56-1.756-1.25h1.756v1.25Zm-6.146 3.125c-1.454 0-2.634-.84-2.634-1.875 0-1.035 1.18-1.875 2.634-1.875s2.634.84 2.634 1.875c0 1.035-1.18 1.875-2.634 1.875Z" fill="#F3F3F3"/></g><defs><clipPath id="a"><path fill="#fff" transform="translate(0 13.75)" d="M0 0h22.244v6.25H0z"/></clipPath><clipPath id="b"><path fill="#fff" transform="rotate(180 12 3.125)" d="M0 0h22.244v6.25H0z"/></clipPath><clipPath id="c"><path fill="#fff" transform="translate(5.854 5)" d="M0 0h15.805v10H0z"/></clipPath></defs></svg>