<svg width="20" height="20" fill="none" xmlns="http://www.w3.org/2000/svg"><path d="M18.422.849a2.186 2.186 0 0 0-3.094 0L14.152 2.02l3.825 3.824 1.175-1.176a2.185 2.185 0 0 0 0-3.094l-.73-.726ZM6.734 9.442a2.158 2.158 0 0 0-.527.856l-1.156 3.469a.942.942 0 0 0 .226.96.93.93 0 0 0 .961.227l3.469-1.156c.32-.11.613-.29.855-.527l6.536-6.54-3.828-3.828-6.536 6.54ZM3.75 2.501C1.68 2.501 0 4.181 0 6.251v10c0 2.07 1.68 3.75 3.75 3.75h10c2.07 0 3.75-1.68 3.75-3.75v-3.75a1.25 1.25 0 1 0-2.5 0v3.75a1.25 1.25 0 0 1-1.25 1.25h-10a1.25 1.25 0 0 1-1.25-1.25v-10c0-.691.559-1.25 1.25-1.25H7.5a1.25 1.25 0 1 0 0-2.5H3.75Z" fill="#1782FF"/></svg>