<svg width="51" height="46" fill="none" xmlns="http://www.w3.org/2000/svg"><g clip-path="url(#a)"><path d="M35.607 41.929h.575l-.08-.57c-.829-5.895-5.894-10.43-12.013-10.43h-8.16c-6.12 0-11.185 4.535-12.013 10.43l.486.068v.502h31.205Zm-7.964-30.5a7.643 7.643 0 1 0-15.286 0 7.643 7.643 0 0 0 15.286 0Zm-18.572 0a10.929 10.929 0 1 1 21.858 0 10.929 10.929 0 0 1-21.858 0ZM.5 43.062c0-8.518 6.901-15.42 15.42-15.42h8.16c8.519 0 15.42 6.902 15.42 15.42a2.152 2.152 0 0 1-2.152 2.152H2.652A2.152 2.152 0 0 1 .5 43.063Z" fill="#F5F5F5" stroke="#FFFCFC"/></g><path d="m43.729 15.88-2.366 2.27 6.355 6.1 2.365-2.27a2.918 2.918 0 0 0 0-4.247l-1.925-1.853c-1.223-1.173-3.202-1.173-4.424 0h-.005Zm-3.47 3.331L28.863 30.154a4.13 4.13 0 0 0-1.085 1.755l-1.73 5.644c-.123.4-.01.826.293 1.117.303.29.748.399 1.158.286l5.88-1.66a4.375 4.375 0 0 0 1.829-1.042L46.613 25.31l-6.355-6.1Z" fill="#fff"/><defs><clipPath id="a"><path fill="#fff" d="M0 0h40v45.714H0z"/></clipPath></defs></svg>