<svg width="18" height="20" fill="none" xmlns="http://www.w3.org/2000/svg"><g clip-path="url(#a)"><path d="M5.432.691A1.285 1.285 0 0 1 6.582 0h4.837c.486 0 .932.266 1.149.691l.29.559h3.856c.711 0 1.286.559 1.286 1.25s-.575 1.25-1.286 1.25H1.286C.575 3.75 0 3.191 0 2.5s.575-1.25 1.286-1.25h3.857l.29-.559ZM1.286 5h15.428v12.5c0 1.379-1.153 2.5-2.571 2.5H3.857c-1.418 0-2.571-1.121-2.571-2.5V5Zm3.857 2.5a.636.636 0 0 0-.643.625v8.75c0 .344.29.625.643.625a.636.636 0 0 0 .643-.625v-8.75a.636.636 0 0 0-.643-.625ZM9 7.5a.636.636 0 0 0-.643.625v8.75c0 .344.29.625.643.625a.636.636 0 0 0 .643-.625v-8.75A.636.636 0 0 0 9 7.5Zm3.857 0a.636.636 0 0 0-.643.625v8.75c0 .344.29.625.643.625a.636.636 0 0 0 .643-.625v-8.75a.636.636 0 0 0-.643-.625Z" fill="red"/></g><defs><clipPath id="a"><path fill="#fff" d="M0 0h18v20H0z"/></clipPath></defs></svg>