<svg width="85" height="85" fill="none" xmlns="http://www.w3.org/2000/svg"><circle cx="42.5" cy="42.5" r="42.5" fill="#1782FF"/><g clip-path="url(#clip0_249_275)" stroke="#fff" stroke-width="4.25" stroke-linecap="round" stroke-linejoin="round"><path d="M19 19v48h48"/><path d="M35 40.333a5.333 5.333 0 100-10.667 5.333 5.333 0 000 10.667zM61.667 35a5.333 5.333 0 100-10.666 5.333 5.333 0 000 10.667zM48.333 56.333a5.333 5.333 0 100-10.667 5.333 5.333 0 000 10.667zM38.093 39.32l6.24 7.68m6.902-.458l7.565-12.23"/></g><defs><clipPath id="clip0_249_275"><path fill="#fff" transform="translate(11 11)" d="M0 0h64v64H0z"/></clipPath></defs></svg>