<svg width="20" height="18" fill="none" xmlns="http://www.w3.org/2000/svg"><g clip-path="url(#clip0_803_241)"><path d="M5.556 9c0-2.486 1.99-4.5 4.444-4.5 2.455 0 4.444 2.014 4.444 4.5s-1.99 4.5-4.444 4.5c-2.455 0-4.444-2.014-4.444-4.5zM10 11.813c1.535 0 2.778-1.26 2.778-2.813 0-1.554-1.243-2.813-2.778-2.813h-.1c.076.18.1.37.1.563C10 7.991 9.003 9 7.778 9c-.191 0-.379-.025-.556-.102v.07c0 1.586 1.243 2.845 2.778 2.845zM3.313 3.958C4.948 2.42 7.194 1.125 10 1.125c2.806 0 5.052 1.295 6.688 2.834 1.625 1.525 2.711 3.322 3.225 4.609a1.13 1.13 0 010 .864c-.514 1.255-1.6 3.052-3.226 4.61-1.635 1.54-3.881 2.833-6.687 2.833-2.806 0-5.052-1.294-6.687-2.834C1.688 12.484.603 10.687.085 9.432a1.137 1.137 0 010-.864c.517-1.287 1.603-3.084 3.228-4.61zM10 2.812c-2.264 0-4.125 1.041-5.552 2.38C3.11 6.453 2.188 7.915 1.717 9c.471 1.055 1.394 2.549 2.73 3.807 1.428 1.34 3.29 2.38 5.553 2.38 2.264 0 4.125-1.04 5.552-2.38 1.337-1.258 2.23-2.752 2.733-3.807-.504-1.086-1.396-2.549-2.733-3.807-1.427-1.34-3.288-2.38-5.552-2.38z" fill="#fff"/></g><defs><clipPath id="clip0_803_241"><path fill="#fff" d="M0 0h20v18H0z"/></clipPath></defs></svg>