<svg width="55" height="55" fill="none" xmlns="http://www.w3.org/2000/svg"><g clip-path="url(#clip0_825_241)"><path d="M20.227 15.802c.806-.462 1.805-.537 2.6.043l15.469 9.453A2.592 2.592 0 0139.53 27.5a2.59 2.59 0 01-1.235 2.202l-15.469 9.453a2.56 2.56 0 01-2.6.043 2.562 2.562 0 01-1.32-2.245V17.95c0-.838.504-1.697 1.32-2.148zM55 27.5C55 42.69 42.69 55 27.5 55S0 42.69 0 27.5 12.31 0 27.5 0 55 12.31 55 27.5zM27.5 5.156C15.157 5.156 5.156 15.157 5.156 27.5c0 12.343 10.001 22.344 22.344 22.344 12.343 0 22.344-10.001 22.344-22.344 0-12.343-10.001-22.344-22.344-22.344z" fill="#000"/></g><defs><clipPath id="clip0_825_241"><path fill="#fff" d="M0 0h55v55H0z"/></clipPath></defs></svg>