<svg width="85" height="85" fill="none" xmlns="http://www.w3.org/2000/svg"><circle cx="42.5" cy="42.5" r="42.5" fill="#1782FF"/><path d="M35 21.334h-5.333a5.333 5.333 0 00-5.334 5.333v32a5.333 5.333 0 005.334 5.334h26.666a5.334 5.334 0 005.334-5.334v-32a5.333 5.333 0 00-5.334-5.333H51" stroke="#fff" stroke-width="4.25" stroke-linecap="round" stroke-linejoin="round"/><path d="M45.667 16h-5.334a5.333 5.333 0 000 10.667h5.334a5.333 5.333 0 000-10.667zM35 40h.027m10.64 0H51M35 50.666h.027m10.64 0H51" stroke="#fff" stroke-width="4.25" stroke-linecap="round" stroke-linejoin="round"/></svg>