<svg width="10" height="15" fill="none" xmlns="http://www.w3.org/2000/svg"><g clip-path="url(#a)"><path d="M5.617 14.625c1.336-1.88 4.383-6.44 4.383-9C10 2.52 7.76 0 5 0S0 2.52 0 5.625c0 2.56 3.047 7.12 4.383 9 .32.448.914.448 1.234 0ZM5 3.75c.442 0 .866.198 1.179.55a2 2 0 0 1 .488 1.325 2 2 0 0 1-.488 1.326A1.582 1.582 0 0 1 5 7.5a1.58 1.58 0 0 1-1.179-.55 2 2 0 0 1-.488-1.325 2 2 0 0 1 .488-1.326A1.582 1.582 0 0 1 5 3.75Z" fill="#0538A5"/></g><defs><clipPath id="a"><path fill="#fff" d="M0 0h10v15H0z"/></clipPath></defs></svg>