<svg width="393" height="120" fill="none" xmlns="http://www.w3.org/2000/svg"><path d="M116.664 119.859c-2.339 0-5.851-.213-9.889-.599-4.821-.461-10.181-1.153-15.502-1.999a274.9 274.9 0 01-18.97-3.7c-7.177-1.669-14.007-3.586-20.3-5.699-15.28-5.128-27.407-11.38-36.047-18.582-2.442-2.036-4.63-4.174-6.507-6.357-1.963-2.283-3.637-4.676-4.975-7.114a35.007 35.007 0 01-3.18-7.91A34.337 34.337 0 01.176 59.15c0-3.05.415-6.041 1.234-8.89a33.037 33.037 0 013.517-7.977c1.485-2.45 3.343-4.844 5.524-7.113 2.09-2.175 4.532-4.294 7.257-6.298 9.72-7.148 23.452-13.188 40.815-17.955C65.79 8.923 73.722 7.148 82.1 5.642a355.451 355.451 0 0122.714-3.306A370.74 370.74 0 01124.431.628c6.726-.401 11.482-.485 14.287-.485 1.287 0 2.441.017 3.43.052.71.025 1.24.06 1.619.108.344.044.488.088.546.114-.06.044-.237.14-.746.294-.478.145-1.168.317-2.11.527-1.804.403-4.327.9-7.522 1.53-15.061 2.967-43.096 8.49-67.552 18.294C36.36 33.097 21.137 47.866 21.137 64.957c0 18.568 12.889 32.87 38.309 42.512 20.435 7.751 43.074 10.305 53.953 11.532 1.692.191 3.028.342 3.995.473.502.069.876.128 1.144.182.135.027.23.051.298.07-.216.053-.774.133-2.172.133z" fill="#0F0D0D"/><path d="M138.718.283c-2.802 0-7.554.085-14.274.486a370.52 370.52 0 00-19.606 1.707 355.257 355.257 0 00-22.7 3.303C73.766 7.284 65.84 9.058 58.58 11.05c-17.34 4.76-31.051 10.792-40.753 17.925-2.717 1.999-5.152 4.112-7.236 6.28-2.174 2.263-4.026 4.648-5.505 7.09a32.91 32.91 0 00-3.504 7.946 32.054 32.054 0 00-1.23 8.859c0 2.977.375 5.91 1.115 8.717a34.883 34.883 0 003.168 7.883c1.334 2.43 3.003 4.815 4.96 7.09 1.87 2.177 4.053 4.31 6.488 6.34 8.623 7.188 20.731 13.429 35.988 18.55 6.287 2.11 13.111 4.025 20.282 5.693a275.097 275.097 0 0018.955 3.697c11.269 1.793 20.856 2.596 25.358 2.596.521 0 .922-.011 1.23-.028a38.794 38.794 0 00-.629-.089c-.957-.128-2.252-.274-3.891-.459-10.888-1.229-33.544-3.785-54.004-11.545-25.487-9.666-38.41-24.013-38.41-42.64 0-17.15 15.256-31.96 45.344-44.022 24.474-9.81 52.521-15.337 67.589-18.305 3.102-.612 5.553-1.094 7.345-1.49a36.689 36.689 0 002.123-.52c.219-.062.382-.116.503-.16a6.173 6.173 0 00-.213-.027 20.765 20.765 0 00-1.511-.096 98.608 98.608 0 00-3.423-.053zm0-.283c1.32 0 2.469.019 3.438.053C164.454.84 21.313 12.567 21.313 64.956c0 52.389 103.19 53.343 97.612 54.894-.349.097-1.122.15-2.26.15C99.606 120 0 108.262 0 59.15 0 9.039 109.671 0 138.718 0z" fill="#707070"/><path d="M229.808 119.454a113.8 113.8 0 01-3.577-.05 20.816 20.816 0 01-1.67-.103c-.344-.041-.495-.084-.561-.11.072-.047.272-.145.827-.302a37.497 37.497 0 012.322-.542c1.984-.415 4.751-.927 8.254-1.575 15.949-2.95 45.637-8.442 71.341-17.89 31.513-11.583 47.492-25.621 47.492-41.724 0-17.6-13.742-31.005-40.844-39.843-21.763-7.098-46.641-9.312-57.265-10.258-1.74-.155-3.116-.277-4.11-.386a22.577 22.577 0 01-1.179-.151 5.45 5.45 0 01-.238-.044c.39-.073 1.162-.113 2.2-.113 2.44 0 6.102.201 10.313.567 5.026.435 10.615 1.089 16.163 1.889 6.71.968 13.365 2.144 19.778 3.495 7.483 1.578 14.605 3.39 21.166 5.385 15.931 4.845 28.576 10.753 37.583 17.558 2.546 1.923 4.828 3.943 6.784 6.005 2.046 2.156 3.79 4.417 5.185 6.72 1.456 2.401 2.57 4.915 3.313 7.47a29.55 29.55 0 011.166 8.26 27.7 27.7 0 01-1.286 8.394c-.821 2.59-2.054 5.124-3.665 7.533-1.547 2.314-3.485 4.575-5.758 6.719-2.179 2.055-4.724 4.057-7.565 5.95-10.134 6.753-24.451 12.461-42.555 16.965-7.577 1.885-15.847 3.562-24.582 4.985a405.97 405.97 0 01-23.682 3.123 426.243 426.243 0 01-20.453 1.614c-7.013.38-11.972.459-14.897.459z" fill="#0F0D0D"/><path d="M229.808 119.312c2.923 0 7.877-.08 14.885-.459a425.924 425.924 0 0020.443-1.613 406.388 406.388 0 0023.669-3.121c8.729-1.423 16.994-3.099 24.565-4.983 18.082-4.498 32.379-10.197 42.495-16.938 2.833-1.888 5.371-3.884 7.544-5.933 2.265-2.136 4.195-4.389 5.737-6.695 1.604-2.398 2.831-4.922 3.649-7.5a27.6 27.6 0 001.281-8.36c0-2.81-.391-5.578-1.162-8.227-.74-2.545-1.85-5.048-3.299-7.44-1.39-2.294-3.129-4.547-5.167-6.696-1.95-2.056-4.226-4.07-6.765-5.988-8.99-6.792-21.616-12.69-37.525-17.529-6.555-1.993-13.671-3.804-21.148-5.38a312.769 312.769 0 00-19.765-3.493c-11.752-1.694-21.75-2.453-26.445-2.453-.346 0-.642.004-.894.011l.227.025c.986.106 2.322.225 4.014.375 10.63.947 35.525 3.162 57.311 10.267 27.175 8.863 40.954 22.312 40.954 39.975 0 16.163-16.014 30.245-47.595 41.853-25.72 9.454-55.419 14.948-71.375 17.899-3.411.631-6.105 1.13-8.075 1.538a43.089 43.089 0 00-2.337.535 9.68 9.68 0 00-.55.164c.056.008.121.015.193.023.375.04.902.072 1.565.093 1.029.033 2.23.05 3.57.05zm0 .283c-1.376 0-2.574-.018-3.584-.05-23.247-.745 127.836-12.891 127.836-62.388S244.628 7.827 250.443 6.362c.364-.092 1.17-.141 2.357-.141 17.784 0 121.627 11.09 121.627 57.49 0 47.345-114.336 55.884-144.619 55.884z" fill="#707070"/><path d="M52.716 45.479l7.752-4.692h14.008v8.024H61.012v7.684h13.464v7.956H60.468l-7.752-4.624V45.479zm46.852 15.708l-8.024-4.692H77.536v7.956H91v7.752H77.808v7.684h13.736l8.024-4.624V61.187zM61.284 67.51v4.692h13.192v7.684H60.672l-7.956-4.624V67.51h8.568zm38.284-14.076v-7.956l-8.024-4.692H77.536v8.024H91v4.624h8.568zm10.206-7.956l7.752-4.692h14.008v7.684h-13.192v8.024h13.192v7.752h-13.192v15.64h-8.568V45.479zm46.852 0l-8.024-4.692h-14.008v7.684h13.464v8.024h-13.464v7.752h13.464v15.64h8.568V45.479zm6.672 0l7.956-4.692h14.076v7.684h-13.192v23.46h12.92v7.956h-13.804l-7.956-4.624V45.479zm38.284 21.76v4.692h-12.92v7.956h13.804l7.956-4.624v-8.024h-8.84zm8.84-14.008v-7.752l-7.956-4.692H188.39v7.684h13.192v4.76h8.84zm10.849-12.444h8.568v39.1h-8.568v-39.1zm20.817 0h7.752l14.008 13.192v10.268L250.656 51.53v28.356h-8.568v-39.1zm38.284 28.084V40.787h8.568v39.1h-8.024l-14.008-13.464v-9.928l13.464 12.376zm23.777-28.084l14.008 23.46v15.64l-21.76-36.584 7.752-2.516zm31.416 0l-14.076 23.46v15.64l21.76-36.584-7.684-2.516z" fill="#000"/></svg>