<svg width="244" height="52" fill="none" xmlns="http://www.w3.org/2000/svg"><path d="M72.433 51.938c-1.453 0-3.633-.093-6.14-.26a237.551 237.551 0 01-21.402-2.47 186.948 186.948 0 01-12.604-2.469c-9.487-2.222-17.016-4.931-22.38-8.052-1.516-.882-2.876-1.81-4.04-2.755-1.22-.99-2.259-2.026-3.09-3.083-.867-1.102-1.53-2.255-1.973-3.427a10.694 10.694 0 01-.695-3.79c0-1.323.258-2.619.766-3.854.49-1.188 1.224-2.35 2.184-3.456.922-1.062 2.076-2.1 3.43-3.082 1.298-.943 2.813-1.861 4.505-2.73 6.035-3.097 14.56-5.715 25.34-7.78 4.512-.864 9.437-1.634 14.639-2.287 4.52-.567 9.264-1.049 14.102-1.432 4.112-.325 8.21-.574 12.18-.74 4.175-.174 7.128-.21 8.87-.21.8 0 1.516.007 2.13.022.44.011.77.027 1.005.047.213.019.303.038.339.05-.038.019-.147.06-.463.127a26.54 26.54 0 01-1.31.228c-1.12.175-2.687.39-4.67.663-9.351 1.286-26.757 3.68-41.941 7.927-18.64 5.216-28.092 11.616-28.092 19.022 0 8.046 8.002 14.244 23.785 18.422 12.688 3.358 26.743 4.465 33.497 4.997 1.05.083 1.88.148 2.48.205.313.03.545.055.71.079.085.011.144.022.186.03-.134.023-.48.058-1.348.058z" fill="#fff"/><path d="M86.125.123c-1.74 0-4.69.036-8.862.21-3.968.165-8.063.414-12.173.74-4.835.383-9.577.864-14.093 1.431-5.198.652-10.12 1.421-14.627 2.285-10.766 2.063-19.279 4.676-25.302 7.768-1.687.865-3.199 1.781-4.493 2.72-1.35.981-2.5 2.015-3.418 3.073-.957 1.1-1.688 2.26-2.177 3.443a10.033 10.033 0 00-.763 3.839c0 1.29.233 2.561.692 3.778.441 1.168 1.103 2.317 1.967 3.415.828 1.053 1.864 2.087 3.08 3.073 1.16.943 2.516 1.867 4.028 2.747 5.354 3.115 12.871 5.82 22.344 8.038 3.903.915 8.14 1.745 12.592 2.467a236.02 236.02 0 0011.769 1.602c6.996.777 12.948 1.125 15.743 1.125.324 0 .573-.005.764-.012l-.39-.038a175.75 175.75 0 00-2.417-.2c-6.76-.532-20.826-1.64-33.529-5.002-15.823-4.189-23.847-10.406-23.847-18.477 0-7.432 9.472-13.85 28.153-19.077C56.36 4.82 73.775 2.426 83.13 1.14c1.926-.265 3.448-.474 4.56-.646.58-.09 1.01-.163 1.32-.224a6.65 6.65 0 00.312-.07 18.426 18.426 0 00-1.07-.054 87.644 87.644 0 00-2.126-.022zm0-.123c.82 0 1.533.008 2.135.023 13.844.341-75.028 5.423-75.028 28.125 0 22.702 64.067 23.115 60.605 23.787-.217.042-.697.065-1.404.065C61.843 52 0 46.914 0 25.632 0 3.916 68.09 0 86.125 0zm56.555 51.762c-.833 0-1.58-.007-2.221-.022a18.4 18.4 0 01-1.037-.045 2.127 2.127 0 01-.348-.047c.045-.02.169-.063.513-.13.328-.065.799-.142 1.442-.236 1.232-.18 2.95-.401 5.125-.682 9.902-1.279 28.334-3.659 44.293-7.753 19.565-5.02 29.486-11.102 29.486-18.08 0-7.627-8.532-13.435-25.359-17.266-13.512-3.075-28.958-4.035-35.553-4.444-1.081-.068-1.935-.12-2.553-.168-.321-.024-.56-.046-.732-.065a4.786 4.786 0 01-.147-.02c.242-.031.721-.048 1.366-.048 1.514 0 3.788.087 6.403.245a271.741 271.741 0 0122.314 2.333 212.9 212.9 0 0113.142 2.334c9.89 2.1 17.741 4.66 23.334 7.608 1.58.834 2.997 1.71 4.211 2.602 1.271.935 2.354 1.915 3.22 2.912.903 1.041 1.595 2.13 2.057 3.237a9.27 9.27 0 01.724 3.58 8.737 8.737 0 01-.799 3.637c-.51 1.122-1.275 2.22-2.275 3.264-.961 1.004-2.164 1.983-3.575 2.912-1.353.89-2.934 1.758-4.697 2.578-6.292 2.927-15.181 5.4-26.421 7.352-4.704.817-9.839 1.544-15.262 2.16a357.05 357.05 0 01-14.703 1.354 377.1 377.1 0 01-12.699.699c-4.354.164-7.433.199-9.249.199z" fill="#fff"/><path d="M142.68 51.701c1.815 0 4.891-.034 9.242-.198 4.137-.157 8.407-.392 12.692-.7 5.041-.361 9.986-.816 14.695-1.352 5.42-.616 10.551-1.343 15.252-2.159 11.226-1.95 20.103-4.419 26.383-7.34 1.759-.818 3.335-1.683 4.684-2.571 1.406-.926 2.605-1.902 3.562-2.9.996-1.04 1.758-2.134 2.266-3.251a8.71 8.71 0 00.795-3.622 9.235 9.235 0 00-.721-3.566c-.46-1.102-1.149-2.187-2.049-3.224-.863-.994-1.942-1.97-3.208-2.901-1.211-.891-2.624-1.764-4.2-2.595-5.582-2.943-13.42-5.499-23.298-7.596a212.799 212.799 0 00-13.13-2.331 271.752 271.752 0 00-12.271-1.514c-7.297-.734-13.504-1.063-16.419-1.063-.215 0-.399.002-.555.005l.141.01c.612.047 1.441.098 2.492.163 6.6.41 22.056 1.37 35.582 4.45 16.872 3.84 25.427 9.668 25.427 17.322 0 7.004-9.942 13.106-29.55 18.136-15.969 4.097-34.408 6.477-44.314 7.756-2.118.274-3.79.49-5.014.667a36.49 36.49 0 00-1.45.232 7.66 7.66 0 00-.342.07 19.878 19.878 0 001.092.05 96.31 96.31 0 002.216.022zm0 .123c-.854 0-1.598-.008-2.225-.021-14.433-.323 79.369-5.587 79.369-27.035 0-21.449-67.943-21.376-64.333-22.011.226-.04.727-.062 1.464-.062 11.041 0 75.514 4.806 75.514 24.913 0 20.516-70.987 24.216-89.789 24.216z" fill="#fff"/><path d="M32.574 22.543l4.56-2.76h8.24v4.72h-7.92v4.52h7.92v4.68h-8.24l-4.56-2.72v-8.44zm27.56 9.24l-4.72-2.76h-8.24v4.68h7.92v4.56h-7.76v4.52h8.08l4.72-2.72v-8.28zm-22.52 3.72v2.76h7.76v4.52h-8.12l-4.68-2.72v-4.56h5.04zm22.52-8.28v-4.68l-4.72-2.76h-8.24v4.72h7.92v2.72h5.04zm6.004-4.68l4.56-2.76h8.24v4.52h-7.76v4.72h7.76v4.56h-7.76v9.2h-5.04v-20.24zm27.56 0l-4.72-2.76h-8.24v4.52h7.92v4.72h-7.92v4.56h7.92v9.2h5.04v-20.24zm3.924 0l4.68-2.76h8.28v4.52h-7.76v13.8h7.6v4.68h-8.12l-4.68-2.72v-17.52zm22.52 12.8v2.76h-7.6v4.68h8.12l4.68-2.72v-4.72h-5.2zm5.2-8.24v-4.56l-4.68-2.76h-8.28v4.52h7.76v2.8h5.2zm6.382-7.32h5.04v23h-5.04v-23zm12.245 0h4.56l8.24 7.76v6.04l-7.76-7.48v16.68h-5.04v-23zm22.52 16.52v-16.52h5.04v23h-4.72l-8.24-7.92v-5.84l7.92 7.28zm13.987-16.52l8.24 13.8v9.2l-12.8-21.52 4.56-1.48zm18.48 0l-8.28 13.8v9.2l12.8-21.52-4.52-1.48z" fill="#fff"/></svg>