<svg width="393" height="107" fill="none" xmlns="http://www.w3.org/2000/svg"><path d="M116.664 106.874c-2.339 0-5.851-.189-9.889-.534-4.821-.411-10.181-1.028-15.502-1.783a304.086 304.086 0 01-18.97-3.299c-7.177-1.488-14.007-3.198-20.3-5.08-15.28-4.573-27.407-10.148-36.047-16.57-2.442-1.815-4.63-3.722-6.507-5.668-1.963-2.036-3.637-4.17-4.975-6.344-1.397-2.268-2.466-4.64-3.18-7.053a27.498 27.498 0 01-1.118-7.8c0-2.72.415-5.387 1.234-7.927.788-2.445 1.971-4.838 3.517-7.113 1.485-2.185 3.343-4.319 5.524-6.343 2.09-1.94 4.532-3.829 7.257-5.615 9.72-6.373 23.452-11.76 40.815-16.01C65.79 7.956 73.722 6.373 82.1 5.03a396.062 396.062 0 0122.714-2.947A414.789 414.789 0 01124.431.56c6.726-.358 11.482-.433 14.287-.433 1.287 0 2.441.016 3.43.047.71.022 1.24.054 1.619.096.344.039.488.079.546.102-.06.039-.237.125-.746.262-.478.129-1.168.282-2.11.47-1.804.359-4.327.802-7.522 1.363-15.061 2.646-43.096 7.571-67.552 16.313-30.023 10.732-45.246 23.9-45.246 39.14 0 16.556 12.889 29.31 38.309 37.906 20.435 6.912 43.074 9.189 53.953 10.283 1.692.171 3.028.305 3.995.422.502.061.876.114 1.144.162.135.024.23.045.298.062-.216.048-.774.119-2.172.119z" fill="#1782FF"/><path d="M138.718.253c-2.802 0-7.554.075-14.274.432-6.391.34-12.987.853-19.606 1.523a395.846 395.846 0 00-22.7 2.945C73.766 6.495 65.84 8.077 58.58 9.854c-17.34 4.245-31.051 9.622-40.753 15.983-2.717 1.782-5.152 3.666-7.236 5.6-2.174 2.017-4.026 4.144-5.505 6.321-1.54 2.266-2.719 4.65-3.504 7.086a25.703 25.703 0 00-1.23 7.899c0 2.654.375 5.27 1.115 7.773.71 2.404 1.777 4.769 3.168 7.029 1.334 2.166 3.003 4.293 4.96 6.322 1.87 1.94 4.053 3.842 6.488 5.652 8.623 6.41 20.731 11.975 35.988 16.54 6.287 1.882 13.111 3.59 20.282 5.077a304.38 304.38 0 0018.955 3.297c11.269 1.599 20.856 2.314 25.358 2.314.521 0 .922-.009 1.23-.024a38.122 38.122 0 00-.629-.08c-.957-.114-2.252-.244-3.891-.409-10.888-1.095-33.544-3.375-54.004-10.294-25.487-8.62-38.41-21.412-38.41-38.02 0-15.293 15.256-28.5 45.344-39.254 24.474-8.748 52.52-13.675 67.588-16.322 3.102-.545 5.553-.976 7.345-1.329a40.429 40.429 0 002.123-.462c.219-.057.382-.104.503-.143a6.882 6.882 0 00-.213-.025A23.256 23.256 0 00142.141.3c-.987-.03-2.138-.046-3.423-.046zm0-.253c1.32 0 2.469.017 3.438.047C164.454.75 21.313 11.205 21.313 57.92s103.19 47.565 97.612 48.948c-.349.086-1.122.133-2.26.133C99.606 107 0 96.534 0 52.743 0 8.059 109.671 0 138.718 0zm91.09 106.513c-1.342 0-2.545-.015-3.577-.044a22.892 22.892 0 01-1.67-.093c-.344-.036-.495-.074-.561-.097.072-.043.272-.13.827-.269a40.67 40.67 0 012.322-.484c1.984-.37 4.751-.826 8.254-1.404 15.949-2.631 45.637-7.528 71.341-15.952 31.513-10.329 47.492-22.846 47.492-37.204 0-15.693-13.742-27.646-40.844-35.527-21.763-6.329-46.641-8.303-57.265-9.147-1.74-.138-3.116-.247-4.11-.344-.518-.05-.904-.094-1.179-.135a6.037 6.037 0 01-.238-.04c.39-.064 1.162-.1 2.2-.1 2.44 0 6.102.18 10.313.506a327.27 327.27 0 0116.163 1.684 347.68 347.68 0 0119.778 3.117c7.483 1.406 14.605 3.022 21.166 4.801 15.931 4.321 28.576 9.588 37.583 15.656 2.546 1.715 4.828 3.516 6.784 5.355 2.046 1.923 3.79 3.938 5.185 5.991 1.456 2.142 2.57 4.383 3.313 6.661a23.701 23.701 0 011.166 7.365 22.26 22.26 0 01-1.286 7.486c-.821 2.308-2.054 4.568-3.665 6.716-1.547 2.064-3.485 4.08-5.758 5.991-2.179 1.833-4.724 3.618-7.565 5.306-10.134 6.021-24.451 11.11-42.555 15.127-7.577 1.68-15.847 3.176-24.582 4.445a453.356 453.356 0 01-23.682 2.785 477.415 477.415 0 01-20.453 1.439c-7.013.338-11.972.409-14.897.409z" fill="#1782FF"/><path d="M229.808 106.386c2.923 0 7.877-.071 14.885-.409a475.44 475.44 0 0020.443-1.438 453.945 453.945 0 0023.669-2.783c8.729-1.268 16.994-2.763 24.565-4.443 18.082-4.01 32.379-9.092 42.495-15.103 2.833-1.684 5.371-3.464 7.544-5.29 2.265-1.905 4.195-3.914 5.737-5.97 1.604-2.139 2.831-4.389 3.649-6.688a22.171 22.171 0 001.281-7.454 23.61 23.61 0 00-1.162-7.336c-.74-2.269-1.85-4.5-3.299-6.634-1.39-2.045-3.129-4.054-5.167-5.97-1.95-1.833-4.226-3.63-6.765-5.34-8.99-6.056-21.616-11.314-37.525-15.629-6.555-1.778-13.671-3.392-21.148-4.797a347.473 347.473 0 00-19.765-3.115c-11.752-1.511-21.75-2.188-26.445-2.188-.346 0-.642.004-.894.01l.227.023c.986.094 2.322.2 4.014.334 10.63.844 35.525 2.82 57.311 9.155 27.175 7.902 40.954 19.895 40.954 35.644 0 14.412-16.014 26.968-47.595 37.319-25.72 8.43-55.419 13.328-71.375 15.96-3.411.563-6.105 1.007-8.075 1.371-1.028.19-1.792.346-2.337.477-.239.058-.417.107-.55.147l.193.02c.375.036.902.064 1.565.083 1.029.029 2.23.044 3.57.044zm0 .253c-1.376 0-2.574-.016-3.584-.045C202.977 105.93 354.06 95.1 354.06 50.965c0-44.134-109.432-43.985-103.617-45.292.364-.082 1.17-.126 2.357-.126 17.784 0 121.627 9.888 121.627 51.261 0 42.217-114.336 49.831-144.619 49.831z" fill="#1782FF"/><path d="M52.716 42.782l7.752-4.693h14.008v8.025H61.012v7.684h13.464v7.956H60.468l-7.752-4.624V42.78zM99.568 58.49l-8.024-4.693H77.536v7.957H91v7.752H77.808v7.683h13.736l8.024-4.623V58.489zm-38.284 6.324v4.692h13.192v7.683H60.672l-7.956-4.623v-7.752h8.568zm38.284-14.076v-7.956l-8.024-4.693H77.536v8.025H91v4.623h8.568zm10.206-7.956l7.752-4.693h14.008v7.684h-13.192v8.024h13.192v7.753h-13.192v15.64h-8.568V42.781zm46.852 0l-8.024-4.693h-14.008v7.684h13.464v8.024h-13.464v7.753h13.464v15.64h8.568V42.781zm6.672 0l7.956-4.693h14.076v7.684h-13.192v23.46h12.92v7.956h-13.804l-7.956-4.623V42.78zm38.284 21.76v4.692h-12.92v7.956h13.804l7.956-4.624V64.54h-8.84zm8.84-14.009v-7.752l-7.956-4.692H188.39v7.684h13.192v4.76h8.84zm10.849-12.444h8.568v39.1h-8.568v-39.1zm20.817 0h7.752l14.008 13.193V61.55l-13.192-12.716v28.355h-8.568v-39.1zm38.284 28.085V38.089h8.568v39.1h-8.024l-14.008-13.463v-9.928l13.464 12.376zm23.777-28.085l14.008 23.46v15.64l-21.76-36.584 7.752-2.516zm31.416 0l-14.076 23.46v15.64l21.76-36.584-7.684-2.516z" fill="#1782FF"/></svg>