<svg width="85" height="85" fill="none" xmlns="http://www.w3.org/2000/svg"><circle cx="42.5" cy="42.5" r="42.5" fill="#1782FF"/><path d="M60.667 36H34a5.333 5.333 0 00-5.333 5.333v16A5.333 5.333 0 0034 62.667h26.667A5.333 5.333 0 0066 57.333v-16A5.333 5.333 0 0060.667 36z" stroke="#fff" stroke-width="4.25" stroke-linecap="round" stroke-linejoin="round"/><path d="M47.333 54.667a5.333 5.333 0 100-10.667 5.333 5.333 0 000 10.667zm8-18.667v-5.333A5.333 5.333 0 0050 25.334H23.333A5.333 5.333 0 0018 30.667v16a5.333 5.333 0 005.333 5.334h5.334" stroke="#fff" stroke-width="4.25" stroke-linecap="round" stroke-linejoin="round"/></svg>