<svg width="40" height="40" fill="none" xmlns="http://www.w3.org/2000/svg"><path d="M36.675 23.54l3.283-16.25C40.195 6.118 39.402 5 38.333 5H11.056l-.636-3.5C10.26.626 9.578 0 8.787 0h-7.12C.747 0 0 .84 0 1.875v1.25C0 4.161.746 5 1.667 5H6.52l4.878 26.83c-1.167.756-1.954 2.172-1.954 3.795 0 2.416 1.742 4.375 3.89 4.375 2.147 0 3.888-1.959 3.888-4.375 0-1.224-.448-2.33-1.168-3.125h14.559c-.72.794-1.169 1.9-1.169 3.125 0 2.416 1.742 4.375 3.89 4.375 2.147 0 3.888-1.959 3.888-4.375 0-1.732-.895-3.23-2.193-3.938l.383-1.896c.237-1.174-.555-2.291-1.625-2.291h-18.64l-.454-2.5H35.05c.778 0 1.453-.606 1.625-1.46z" fill="#fff"/></svg>