<svg width="40" height="29" fill="none" xmlns="http://www.w3.org/2000/svg"><path d="M6 12.063c2.206 0 4-1.794 4-4 0-2.207-1.794-4-4-4s-4 1.793-4 4c0 2.206 1.794 4 4 4zm28 0c2.206 0 4-1.794 4-4 0-2.207-1.794-4-4-4s-4 1.793-4 4c0 2.206 1.794 4 4 4zm2 2h-4c-1.1 0-2.094.443-2.819 1.162a9.143 9.143 0 014.694 6.838H38c1.106 0 2-.894 2-2v-2c0-2.207-1.794-4-4-4zm-16 0c3.869 0 7-3.132 7-7 0-3.87-3.131-7-7-7s-7 3.13-7 7c0 3.868 3.131 7 7 7zm4.8 2h-.519c-1.3.625-2.743 1-4.281 1-1.538 0-2.975-.375-4.281-1H15.2a7.202 7.202 0 00-7.2 7.2v1.8a3 3 0 003 3h18a3 3 0 003-3v-1.8c0-3.976-3.225-7.2-7.2-7.2zm-13.981-.838A3.988 3.988 0 008 14.063H4c-2.206 0-4 1.793-4 4v2c0 1.106.894 2 2 2h4.119a9.165 9.165 0 014.7-6.838z" fill="#fff"/></svg>