<svg width="40" height="40" viewBox="0 0 40 40" fill="none" xmlns="http://www.w3.org/2000/svg">
<path d="M31.1719 30.0156C29.4453 27.0156 26.2031 25 22.5 25H17.5C13.7969 25 10.5547 27.0156 8.82812 30.0156C11.5781 33.0781 15.5625 35 20 35C24.4375 35 28.4219 33.0703 31.1719 30.0156ZM40 20C40 31.0469 31.0469 40 20 40C8.95312 40 0 31.0469 0 20C0 8.95312 8.95312 0 20 0C31.0469 0 40 8.95312 40 20ZM20 21.25C23.1094 21.25 25.625 18.7344 25.625 15.625C25.625 12.5156 23.1094 10 20 10C16.8906 10 14.375 12.5156 14.375 15.625C14.375 18.7344 16.8906 21.25 20 21.25Z" fill="black"/>
</svg>
