<svg width="38" height="41" fill="none" xmlns="http://www.w3.org/2000/svg"><path d="M37.742 13.793c.25.68.04 1.438-.5 1.922l-3.383 3.078c.086.648.133 1.313.133 1.984 0 .672-.047 1.336-.133 1.985l3.383 3.078c.54.484.75 1.242.5 1.922-.343.93-.758 1.82-1.234 2.68l-.367.632a19.874 19.874 0 01-1.727 2.438c-.46.562-1.227.75-1.914.531l-4.352-1.383a15.038 15.038 0 01-3.437 1.985l-.977 4.46c-.156.711-.703 1.274-1.422 1.391-1.078.18-2.187.273-3.32.273s-2.242-.093-3.32-.273c-.719-.117-1.266-.68-1.422-1.39l-.976-4.462a15.035 15.035 0 01-3.438-1.984l-4.344 1.39c-.687.22-1.453.024-1.914-.53a19.876 19.876 0 01-1.726-2.438l-.368-.633a19.48 19.48 0 01-1.234-2.68c-.25-.68-.039-1.437.5-1.921l3.383-3.078A15.326 15.326 0 014 20.777c0-.672.047-1.336.133-1.984L.75 15.715c-.539-.485-.75-1.242-.5-1.922.344-.93.758-1.82 1.234-2.68l.368-.633a19.877 19.877 0 011.726-2.437c.461-.563 1.227-.75 1.914-.531l4.352 1.383A15.032 15.032 0 0113.28 6.91l.977-4.46c.156-.712.703-1.274 1.422-1.391A19.367 19.367 0 0119 .777c1.133 0 2.242.094 3.32.274.72.117 1.266.68 1.422 1.39l.977 4.461c1.234.508 2.39 1.18 3.437 1.985l4.352-1.383c.687-.219 1.453-.024 1.914.531.633.766 1.21 1.578 1.727 2.438l.367.632c.476.86.89 1.75 1.234 2.68l-.008.008zM19 27.027a6.248 6.248 0 006.25-6.25 6.248 6.248 0 00-6.25-6.25 6.248 6.248 0 00-6.25 6.25 6.248 6.248 0 006.25 6.25z" fill="#fff"/></svg>