<svg width="35" height="35" fill="none" xmlns="http://www.w3.org/2000/svg"><path d="M21.328 13.795c0-1.19.629-2.27 1.36-3.213A6.564 6.564 0 0017.5 0a6.564 6.564 0 00-5.187 10.582c.731.943 1.36 2.023 1.36 3.213A3.708 3.708 0 019.967 17.5h-2.31A7.652 7.652 0 000 25.156a3.29 3.29 0 002.188 3.097v3.466A3.282 3.282 0 005.467 35H29.53a3.282 3.282 0 003.282-3.281v-3.466A3.29 3.29 0 0035 25.156a7.652 7.652 0 00-7.656-7.656h-2.31a3.708 3.708 0 01-3.706-3.705zm7.11 14.643v2.187H6.563v-2.188h21.875z" fill="#000"/></svg>