<svg width="40" height="46" fill="none" xmlns="http://www.w3.org/2000/svg"><path d="M20.8.063c6.565 0 11.886 5.116 11.886 11.428 0 6.313-5.321 11.429-11.886 11.429-6.565 0-11.886-5.116-11.886-11.429C8.914 5.18 14.235.063 20.8.063zm-1.384 32.07l-1.727-2.767c-.594-.955.121-2.16 1.272-2.16h3.669c1.15 0 1.866 1.214 1.271 2.16l-1.727 2.768 3.102 11.062 3.668-14.392C36.112 29.875 41.6 35.839 41.6 43.036c0 1.518-1.281 2.74-2.85 2.74H2.85C1.28 45.777 0 44.546 0 43.037c0-7.197 5.488-13.161 12.656-14.232l3.668 14.392 3.102-11.062h-.01z" fill="#fff"/></svg>