<svg width="27" height="35" viewBox="0 0 27 35" fill="none" xmlns="http://www.w3.org/2000/svg">
<path d="M14.7451 34.125C18.252 29.7363 26.25 19.0996 26.25 13.125C26.25 5.87891 20.3711 0 13.125 0C5.87891 0 0 5.87891 0 13.125C0 19.0996 7.99805 29.7363 11.5049 34.125C12.3457 35.1709 13.9043 35.1709 14.7451 34.125ZM13.125 17.5C10.7119 17.5 8.75 15.5381 8.75 13.125C8.75 10.7119 10.7119 8.75 13.125 8.75C15.5381 8.75 17.5 10.7119 17.5 13.125C17.5 15.5381 15.5381 17.5 13.125 17.5Z" fill="white"/>
</svg>
