<svg width="36" height="41" fill="none" xmlns="http://www.w3.org/2000/svg"><path d="M18 .777a2.497 2.497 0 00-2.5 2.5v1.5c-5.703 1.157-10 6.203-10 12.25v1.47c0 3.671-1.351 7.218-3.789 9.968l-.578.648a2.51 2.51 0 00-.414 2.688A2.496 2.496 0 003 33.277h30c.985 0 1.875-.578 2.282-1.476a2.494 2.494 0 00-.415-2.688l-.578-.648a15.021 15.021 0 01-3.789-9.969v-1.469c0-6.047-4.297-11.093-10-12.25v-1.5c0-1.382-1.117-2.5-2.5-2.5zm3.54 38.54a5.002 5.002 0 001.46-3.54H13c0 1.328.524 2.602 1.461 3.54a5.002 5.002 0 003.54 1.46 5.002 5.002 0 003.538-1.46z" fill="#000"/></svg>