<svg width="15" height="15" fill="none" xmlns="http://www.w3.org/2000/svg"><g clip-path="url(#a)"><path d="M4.831.72A1.168 1.168 0 0 0 3.442.042L.864.744C.354.884 0 1.348 0 1.875 0 9.123 5.877 15 13.125 15c.527 0 .99-.354 1.13-.864l.704-2.578a1.168 1.168 0 0 0-.68-1.389l-2.812-1.172a1.168 1.168 0 0 0-1.357.34l-1.183 1.444a9.902 9.902 0 0 1-4.708-4.708l1.444-1.18a1.17 1.17 0 0 0 .34-1.357L4.83.724V.72Z" fill="#0538A5"/></g><defs><clipPath id="a"><path fill="#fff" d="M0 0h15v15H0z"/></clipPath></defs></svg>